<svg width="125" height="92" viewBox="0 0 125 92" fill="none" xmlns="http://www.w3.org/2000/svg">
<path d="M71.5558 69.1248L60.0481 69.4693C59.474 69.4693 59.2444 68.6656 59.7037 68.3212L65.2252 64.5272C67.0675 63.3792 67.4119 60.848 66.1436 59.0057C64.7605 57.393 62.3496 57.0486 60.7369 58.4317L48.8848 67.6379C47.6219 68.5563 46.124 69.2506 44.5113 69.2506H35.0755C34.3867 69.2506 34.1571 68.5618 34.7311 68.2173C41.2913 64.3031 45.6593 61.8922 51.7603 58.3224C57.5115 54.9876 66.0288 50.1549 66.0288 42.9058C66.0288 36.4604 61.3109 32.7812 54.2915 32.7812C49.344 32.7812 44.3965 34.0496 40.2526 35.6568C30.3576 39.336 19.1998 46.3554 16.6686 57.4039C15.7502 61.0831 20.9273 63.3847 22.7642 59.3611C23.6826 57.1743 24.7213 55.2172 26.2138 53.2655C32.4241 45.6721 43.7022 40.1506 53.138 40.1506C55.8987 40.1506 57.5114 41.069 57.5114 43.0261C57.5114 44.4092 56.8226 45.7869 54.2915 47.6292C51.4159 49.7011 40.7173 55.5671 34.1571 59.5961C25.6452 64.7732 22.9993 66.96 22.9993 70.4095C22.9993 74.783 26.7932 76.6199 32.435 76.6199H44.5168C46.3591 76.6199 47.5071 77.1939 48.7754 78.1178L60.7424 87.4388C62.4699 88.8219 65.001 88.3572 66.2639 86.6351C67.4119 84.7928 66.9527 82.4913 65.2306 81.2284L59.7091 77.4344C59.2499 77.09 59.4795 76.4012 60.0535 76.4012L71.5612 76.7456C76.8531 76.8604 76.7383 69.0374 71.5612 69.1522L71.5558 69.1248Z" fill="#FF6500"/>
<path d="M120.91 69.1253L108.714 69.4697C108.14 69.4697 107.91 68.6661 108.369 68.3217L113.891 64.5277C115.733 63.3797 116.078 60.8485 114.809 59.0062C113.426 57.3935 111.015 57.0491 109.403 58.4322L97.5506 67.6383C96.2877 68.5568 94.7898 68.9066 93.4067 68.6716C85.354 67.4033 81.899 63.4945 81.899 58.7766C81.899 52.4514 91.1052 47.8484 98.5838 43.5897C107.096 38.6422 114.23 35.537 114.23 29.2064C114.23 25.0625 110.78 20.2298 98.469 18.5078C95.1342 18.0486 92.9475 18.7374 92.4883 21.0389C92.0291 23.3405 93.4067 24.7181 96.1675 25.4124C102.033 26.7955 105.833 27.8288 105.833 29.7859C105.833 32.0984 99.3874 34.7334 94.7898 37.1497C85.1244 42.0972 73.6222 48.5372 73.6222 58.547C73.6222 68.5568 79.9473 74.4227 93.4122 76.3798C95.1397 76.6094 96.2877 77.1834 97.4412 78.1073L109.408 87.4283C111.136 88.8114 113.667 88.3467 114.93 86.6247C116.078 84.7824 115.618 82.4808 113.896 81.218L108.375 77.424C107.916 77.0796 108.145 76.3908 108.719 76.3908L120.916 76.7352C126.208 76.85 126.093 69.0269 120.916 69.1417L120.91 69.1253Z" fill="#AC86FF"/>
<path d="M64.8806 27.0192C67.1821 30.0096 70.6317 32.0815 74.6607 32.0815C81.4506 32.0815 86.9721 26.3304 86.9721 19.885C86.9721 13.4396 81.4506 7.68848 74.7755 7.68848C69.9429 7.68848 65.799 10.564 63.8473 14.7079C63.1585 16.2058 62.4642 16.8946 59.9331 17.2391C56.8279 17.8131 53.8375 18.3871 50.7269 18.8518C35.4252 21.7273 19.5495 26.6748 8.61579 38.5269C3.55895 44.0485 0.109375 50.4884 0.109375 57.6226C0.109375 67.5176 7.58802 72.2355 9.65995 73.3836C10.9228 74.0724 12.4207 73.9576 13.4539 72.9243C14.7223 71.6615 14.602 69.7044 13.3391 68.5509C10.234 65.5605 7.58802 63.3738 7.58802 57.8522C7.58802 52.3307 10.808 47.7277 14.4926 43.8134C26.5744 31.1576 43.7129 26.899 60.5125 25.0621C62.6993 24.8325 63.9621 25.6361 64.886 27.0192H64.8806ZM74.7755 15.3967C77.3067 15.3967 79.2638 17.4687 79.2638 19.885C79.2638 22.3014 77.3067 24.3733 74.7755 24.3733C72.2444 24.3733 70.2873 22.4162 70.2873 19.885C70.2873 17.3539 72.3592 15.3967 74.7755 15.3967Z" fill="#FF6A87"/>
</svg>
