<svg width="577" height="92" viewBox="0 0 577 92" fill="none" xmlns="http://www.w3.org/2000/svg">
<path d="M71.5558 69.1248L60.0481 69.4693C59.474 69.4693 59.2444 68.6656 59.7037 68.3212L65.2252 64.5272C67.0675 63.3792 67.4119 60.848 66.1436 59.0057C64.7605 57.393 62.3496 57.0486 60.7369 58.4317L48.8848 67.6379C47.6219 68.5563 46.124 69.2506 44.5113 69.2506H35.0755C34.3867 69.2506 34.1571 68.5618 34.7311 68.2173C41.2913 64.3031 45.6593 61.8922 51.7603 58.3224C57.5115 54.9876 66.0288 50.1549 66.0288 42.9058C66.0288 36.4604 61.3109 32.7812 54.2915 32.7812C49.344 32.7812 44.3965 34.0496 40.2526 35.6568C30.3576 39.336 19.1998 46.3554 16.6686 57.4039C15.7502 61.0831 20.9273 63.3847 22.7642 59.3611C23.6826 57.1743 24.7213 55.2172 26.2138 53.2655C32.4241 45.6721 43.7022 40.1506 53.138 40.1506C55.8987 40.1506 57.5114 41.069 57.5114 43.0261C57.5114 44.4092 56.8226 45.7869 54.2915 47.6292C51.4159 49.7011 40.7173 55.5671 34.1571 59.5961C25.6452 64.7732 22.9993 66.96 22.9993 70.4095C22.9993 74.783 26.7932 76.6199 32.435 76.6199H44.5168C46.3591 76.6199 47.5071 77.1939 48.7754 78.1178L60.7424 87.4388C62.4699 88.8219 65.001 88.3572 66.2639 86.6351C67.4119 84.7928 66.9527 82.4913 65.2306 81.2284L59.7091 77.4344C59.2499 77.09 59.4795 76.4012 60.0535 76.4012L71.5612 76.7456C76.8531 76.8604 76.7383 69.0374 71.5612 69.1522L71.5558 69.1248Z" fill="#FF6500"/>
<path d="M120.91 69.1253L108.714 69.4697C108.14 69.4697 107.91 68.6661 108.369 68.3217L113.891 64.5277C115.733 63.3797 116.078 60.8485 114.809 59.0062C113.426 57.3935 111.015 57.0491 109.403 58.4322L97.5506 67.6383C96.2877 68.5568 94.7898 68.9066 93.4067 68.6716C85.354 67.4033 81.899 63.4945 81.899 58.7766C81.899 52.4514 91.1052 47.8484 98.5838 43.5897C107.096 38.6422 114.23 35.537 114.23 29.2064C114.23 25.0625 110.78 20.2298 98.469 18.5078C95.1342 18.0486 92.9475 18.7374 92.4883 21.0389C92.0291 23.3405 93.4067 24.7181 96.1675 25.4124C102.033 26.7955 105.833 27.8288 105.833 29.7859C105.833 32.0984 99.3874 34.7334 94.7898 37.1497C85.1244 42.0972 73.6222 48.5372 73.6222 58.547C73.6222 68.5568 79.9473 74.4227 93.4122 76.3798C95.1397 76.6094 96.2877 77.1834 97.4412 78.1073L109.408 87.4283C111.136 88.8114 113.667 88.3467 114.93 86.6247C116.078 84.7824 115.618 82.4808 113.896 81.218L108.375 77.424C107.916 77.0796 108.145 76.3908 108.719 76.3908L120.916 76.7352C126.208 76.85 126.093 69.0269 120.916 69.1417L120.91 69.1253Z" fill="#AC86FF"/>
<path d="M64.8806 27.0192C67.1821 30.0096 70.6317 32.0815 74.6607 32.0815C81.4506 32.0815 86.9721 26.3304 86.9721 19.885C86.9721 13.4396 81.4506 7.68848 74.7755 7.68848C69.9429 7.68848 65.799 10.564 63.8473 14.7079C63.1585 16.2058 62.4642 16.8946 59.9331 17.2391C56.8279 17.8131 53.8375 18.3871 50.7269 18.8518C35.4252 21.7273 19.5495 26.6748 8.61579 38.5269C3.55895 44.0485 0.109375 50.4884 0.109375 57.6226C0.109375 67.5176 7.58802 72.2355 9.65995 73.3836C10.9228 74.0724 12.4207 73.9576 13.4539 72.9243C14.7223 71.6615 14.602 69.7044 13.3391 68.5509C10.234 65.5605 7.58802 63.3738 7.58802 57.8522C7.58802 52.3307 10.808 47.7277 14.4926 43.8134C26.5744 31.1576 43.7129 26.899 60.5125 25.0621C62.6993 24.8325 63.9621 25.6361 64.886 27.0192H64.8806ZM74.7755 15.3967C77.3067 15.3967 79.2638 17.4687 79.2638 19.885C79.2638 22.3014 77.3067 24.3733 74.7755 24.3733C72.2444 24.3733 70.2873 22.4162 70.2873 19.885C70.2873 17.3539 72.3592 15.3967 74.7755 15.3967Z" fill="#FF6A87"/>
<path d="M210.752 22.5366L199.873 54.3755L189.344 22.5366H179.214L169.325 54.791L158.287 22.5366H142.603L162.19 73.3838H172.239L181.751 42.343L192.389 73.3838H202.437L220.751 22.5366H210.752Z" fill="white"/>
<path d="M243.264 21.5304C229.023 21.5304 218.69 33.1638 218.69 48.8099C218.69 64.456 229.925 74.3838 243.264 74.3838C255.099 74.3838 263.119 67.7635 263.923 57.9341C260.812 61.0447 255.597 62.9472 249.78 62.9472C242.958 62.9472 234.938 59.2352 232.532 49.3074H263.923C264.021 48.7061 263.988 49.7065 264.021 49.3074C265.552 33.0435 257.303 21.5249 243.258 21.5249L243.264 21.5304ZM249.982 41.3914H231.729C232.128 32.967 236.643 28.4514 241.76 28.4514C246.374 28.4514 250.387 31.7588 249.982 41.3914Z" fill="white"/>
<path d="M284.702 3.17822H270.762V73.3835H284.702V3.17822Z" fill="white"/>
<path d="M306.258 3.17822H292.318V73.3835H306.258V3.17822Z" fill="white"/>
<path d="M338.934 42.8948L332.111 40.6862C326.393 38.8821 324.386 36.2745 324.386 33.5629C324.386 30.2555 327.393 27.9484 330.908 27.9484C335.522 27.9484 337.928 30.7584 337.928 35.5692V36.4713H351.868C351.617 25.7234 342.34 21.5249 332.51 21.5249C319.871 21.5249 311.851 28.4459 311.851 37.5701C311.851 44.8902 316.864 49.3019 325.288 52.2103L332.007 54.5173C337.124 56.3214 339.229 58.7322 339.229 61.9413C339.229 65.1503 336.222 67.9603 331.707 67.9603C326.19 67.9603 323.381 64.046 323.381 59.7327V58.8307H309.238C309.238 70.3602 319.865 74.3729 330.198 74.3729C343.837 74.3729 352.863 67.3535 352.863 57.4257C352.863 49.8049 347.746 45.7922 338.923 42.8839L338.934 42.8948Z" fill="white"/>
<path d="M386.206 21.5303C378.984 21.5303 373.971 25.7452 371.363 30.9606V22.5362H357.423V90.4344H371.363V72.8803C374.271 73.8862 377.382 74.3837 380.389 74.3837C395.833 74.3837 405.766 62.8487 405.766 46.5028C405.766 30.157 396.139 21.5303 386.206 21.5303ZM379.787 67.665C376.376 67.665 371.363 64.7293 371.363 58.8087V33.2621C373.069 32.2617 375.173 31.4581 377.579 31.4581C385.905 31.4581 390.918 37.8488 390.918 51.5159C390.918 62.548 385.801 67.665 379.782 67.665H379.787Z" fill="white"/>
<path d="M424.965 34.1701V22.5367H411.025V73.3893H424.965V35.9796H444.121V22.0392C443.618 21.9408 442.618 21.8369 441.913 21.8369C433.887 21.8369 428.071 26.85 424.965 34.1701Z" fill="white"/>
<path d="M463.326 22.5366H449.386V73.3892H463.326V22.5366Z" fill="white"/>
<path d="M503.141 21.5303C495.22 21.5303 490.004 25.8436 486.593 31.3597V22.5307H472.653V73.3833H486.593V33.4644C488.999 32.3601 491.409 31.6603 493.815 31.6603C500.534 31.6603 503.841 35.5691 503.841 43.4961V73.3833H517.782V38.7836C517.782 27.0518 511.462 21.5357 503.141 21.5357V21.5303Z" fill="white"/>
<path d="M576.123 18.3926C575.702 18.3106 574.855 18.2231 574.265 18.2231C568.251 18.2231 563.714 21.5743 560.937 26.6585C556.787 23.2308 551.173 21.5306 544.613 21.5306C530.169 21.5306 523.051 29.8566 523.051 38.5817C523.051 46.3009 527.567 51.221 535.188 53.3258C528.469 54.5285 525.457 58.7434 525.457 63.0513C525.457 66.9655 528.163 69.77 533.181 71.2734C524.156 72.077 518.339 75.1713 518.339 80.5998C518.339 88.3901 528.671 91.4297 544.317 91.4297C559.963 91.4297 572.4 82.4039 572.4 71.8748C572.4 64.0517 566.54 59.3393 553.977 59.3393H537.194V53.8232C539.403 54.2223 541.906 54.4246 544.514 54.4246C558.958 54.4246 566.075 46.5031 566.075 37.2751C566.075 34.6674 565.228 32.0707 563.965 30.1354H576.123V18.3926ZM551.074 71.8802C556.935 71.8802 561.101 73.1103 561.101 76.7949C561.101 82.5952 554.338 85.2193 545.815 85.2193C537.292 85.2193 531.673 82.5132 531.673 78.1999C531.673 75.8929 533.127 73.3836 535.887 71.8802H551.074ZM545.115 48.1104C540.6 48.1104 536.789 44.3 536.789 37.0783C536.789 31.5622 539.9 27.5496 544.514 27.5496C549.128 27.5496 552.736 31.4638 552.736 38.6855C552.736 44.1032 549.626 48.1159 545.115 48.1159V48.1104Z" fill="white"/>
<path d="M456.356 0.909668C451.666 0.909668 447.861 3.8071 447.861 8.85299C447.861 13.8989 451.666 16.7963 456.356 16.7963C461.047 16.7963 464.852 13.8989 464.852 8.85299C464.852 3.8071 461.047 0.909668 456.356 0.909668Z" fill="white"/>
</svg>
